<svg width="50" height="50" viewBox="0 0 50 50" fill="none" xmlns="http://www.w3.org/2000/svg">
<rect width="50" height="50" rx="5" fill="#6554C0"/>
<path d="M26.9612 8.65508C25.736 8.3625 24.4592 8.20312 23.1453 8.20312C14.0302 8.20312 6.64062 15.6504 6.64062 24.8367C6.64062 34.023 14.0302 41.4703 23.1453 41.4703C24.4592 41.4703 25.7356 41.3109 26.9612 41.0184V8.65508Z" fill="#00B8D9"/>
<path d="M26.9868 40.7172C33.1019 39.466 37.9857 34.8066 39.6093 28.7929L26.9868 29.4812V40.7172Z" fill="#FF991F"/>
<path d="M26.9868 12.1426C26.4752 12.0824 25.9573 12.0434 25.4298 12.0434C18.0725 12.0434 12.1081 18.0543 12.1081 25.4691C12.1081 32.884 18.0725 38.8949 25.4298 38.8949C25.9573 38.8949 26.4752 38.8559 26.9868 38.7957V12.1426Z" fill="white"/>
<path d="M20.2938 25.541C22.1671 25.541 23.6857 24.0106 23.6857 22.1227C23.6857 20.2348 22.1671 18.7043 20.2938 18.7043C18.4205 18.7043 16.9019 20.2348 16.9019 22.1227C16.9019 24.0106 18.4205 25.541 20.2938 25.541Z" fill="#403294"/>
<path d="M26.9868 29.4808C26.9868 29.4808 32.1496 34.9453 39.6105 28.7925C39.6105 28.7925 42.0275 26.3652 45.1337 29.2629C45.476 29.5824 46.0279 29.3031 45.9903 28.8347C45.638 24.4234 43.2248 11.0785 26.9868 8.116V29.4808Z" fill="#FFC400"/>
<path d="M30.6901 12.9605C31.548 13.2089 32.3466 13.0541 32.4738 12.6147C32.601 12.1754 32.0086 11.6179 31.1507 11.3695C30.2929 11.1212 29.4943 11.276 29.3671 11.7153C29.2399 12.1547 29.8323 12.7122 30.6901 12.9605Z" fill="#FF991F"/>
</svg>
